<mxfile host="Electron" agent="Mozilla/5.0 (Windows NT 10.0; Win64; x64) AppleWebKit/537.36 (KHTML, like Gecko) draw.io/25.0.2 Chrome/128.0.6613.186 Electron/32.2.5 Safari/537.36" version="25.0.2">
  <diagram name="Page-1" id="4BMPKNcf6sqTTR6p-q2Q">
    <mxGraphModel dx="2022" dy="697" grid="1" gridSize="10" guides="1" tooltips="1" connect="1" arrows="1" fold="1" page="1" pageScale="1" pageWidth="827" pageHeight="1169" math="0" shadow="0">
      <root>
        <mxCell id="0" />
        <mxCell id="1" parent="0" />
        <mxCell id="l5rh0tmX_DXBjngYn8-5-1" value="&lt;span style=&quot;font-size: 16px; font-weight: 700; text-wrap-mode: nowrap;&quot;&gt;EventFeature&lt;/span&gt;" style="rounded=0;whiteSpace=wrap;html=1;fillColor=#d5e8d4;strokeColor=#82b366;" parent="1" vertex="1">
          <mxGeometry x="120" y="160" width="120" height="60" as="geometry" />
        </mxCell>
        <mxCell id="l5rh0tmX_DXBjngYn8-5-4" value="&lt;u&gt;id&lt;/u&gt;" style="ellipse;whiteSpace=wrap;html=1;fillColor=#dae8fc;strokeColor=#6c8ebf;" parent="1" vertex="1">
          <mxGeometry x="40" y="80" width="70" height="50" as="geometry" />
        </mxCell>
        <mxCell id="l5rh0tmX_DXBjngYn8-5-5" value="event" style="ellipse;whiteSpace=wrap;html=1;fillColor=#dae8fc;strokeColor=#6c8ebf;" parent="1" vertex="1">
          <mxGeometry x="130" y="70" width="70" height="50" as="geometry" />
        </mxCell>
        <mxCell id="l5rh0tmX_DXBjngYn8-5-6" value="key" style="ellipse;whiteSpace=wrap;html=1;fillColor=#dae8fc;strokeColor=#6c8ebf;" parent="1" vertex="1">
          <mxGeometry x="30" y="160" width="70" height="50" as="geometry" />
        </mxCell>
        <mxCell id="l5rh0tmX_DXBjngYn8-5-7" value="value" style="ellipse;whiteSpace=wrap;html=1;fillColor=#dae8fc;strokeColor=#6c8ebf;" parent="1" vertex="1">
          <mxGeometry x="30" y="240" width="70" height="50" as="geometry" />
        </mxCell>
        <mxCell id="l5rh0tmX_DXBjngYn8-5-8" value="" style="endArrow=none;html=1;rounded=0;exitX=0.25;exitY=0;exitDx=0;exitDy=0;" parent="1" source="l5rh0tmX_DXBjngYn8-5-1" target="l5rh0tmX_DXBjngYn8-5-5" edge="1">
          <mxGeometry width="50" height="50" relative="1" as="geometry">
            <mxPoint x="280" y="170" as="sourcePoint" />
            <mxPoint x="330" y="120" as="targetPoint" />
          </mxGeometry>
        </mxCell>
        <mxCell id="l5rh0tmX_DXBjngYn8-5-10" value="" style="endArrow=none;html=1;rounded=0;exitX=0.008;exitY=0.004;exitDx=0;exitDy=0;exitPerimeter=0;" parent="1" source="l5rh0tmX_DXBjngYn8-5-1" target="l5rh0tmX_DXBjngYn8-5-4" edge="1">
          <mxGeometry width="50" height="50" relative="1" as="geometry">
            <mxPoint x="210" y="190" as="sourcePoint" />
            <mxPoint x="260" y="140" as="targetPoint" />
          </mxGeometry>
        </mxCell>
        <mxCell id="l5rh0tmX_DXBjngYn8-5-11" value="" style="endArrow=none;html=1;rounded=0;" parent="1" source="l5rh0tmX_DXBjngYn8-5-6" target="l5rh0tmX_DXBjngYn8-5-1" edge="1">
          <mxGeometry width="50" height="50" relative="1" as="geometry">
            <mxPoint x="230" y="220" as="sourcePoint" />
            <mxPoint x="280" y="170" as="targetPoint" />
          </mxGeometry>
        </mxCell>
        <mxCell id="l5rh0tmX_DXBjngYn8-5-12" value="" style="endArrow=none;html=1;rounded=0;" parent="1" source="l5rh0tmX_DXBjngYn8-5-7" target="l5rh0tmX_DXBjngYn8-5-1" edge="1">
          <mxGeometry width="50" height="50" relative="1" as="geometry">
            <mxPoint x="240" y="280" as="sourcePoint" />
            <mxPoint x="290" y="230" as="targetPoint" />
          </mxGeometry>
        </mxCell>
        <mxCell id="l5rh0tmX_DXBjngYn8-5-13" value="&lt;span style=&quot;font-size: 16px; font-weight: 700; text-wrap-mode: nowrap;&quot;&gt;Event&lt;/span&gt;" style="rounded=0;whiteSpace=wrap;html=1;fillColor=#d5e8d4;strokeColor=#82b366;" parent="1" vertex="1">
          <mxGeometry x="480" y="160" width="120" height="60" as="geometry" />
        </mxCell>
        <mxCell id="l5rh0tmX_DXBjngYn8-5-14" value="includes" style="rhombus;whiteSpace=wrap;html=1;fillColor=#ffe6cc;strokeColor=#d79b00;" parent="1" vertex="1">
          <mxGeometry x="310" y="150" width="80" height="80" as="geometry" />
        </mxCell>
        <mxCell id="l5rh0tmX_DXBjngYn8-5-19" value="" style="endArrow=none;html=1;rounded=0;exitX=0;exitY=0.5;exitDx=0;exitDy=0;entryX=1;entryY=0.5;entryDx=0;entryDy=0;" parent="1" source="l5rh0tmX_DXBjngYn8-5-14" target="l5rh0tmX_DXBjngYn8-5-1" edge="1">
          <mxGeometry relative="1" as="geometry">
            <mxPoint x="260" y="230" as="sourcePoint" />
            <mxPoint x="420" y="230" as="targetPoint" />
          </mxGeometry>
        </mxCell>
        <mxCell id="l5rh0tmX_DXBjngYn8-5-20" value="N" style="resizable=0;html=1;whiteSpace=wrap;align=right;verticalAlign=bottom;" parent="l5rh0tmX_DXBjngYn8-5-19" connectable="0" vertex="1">
          <mxGeometry x="1" relative="1" as="geometry">
            <mxPoint x="20" as="offset" />
          </mxGeometry>
        </mxCell>
        <mxCell id="l5rh0tmX_DXBjngYn8-5-21" value="" style="endArrow=none;html=1;rounded=0;exitX=1;exitY=0.5;exitDx=0;exitDy=0;entryX=0;entryY=0.5;entryDx=0;entryDy=0;" parent="1" source="l5rh0tmX_DXBjngYn8-5-14" target="l5rh0tmX_DXBjngYn8-5-13" edge="1">
          <mxGeometry relative="1" as="geometry">
            <mxPoint x="260" y="230" as="sourcePoint" />
            <mxPoint x="420" y="230" as="targetPoint" />
          </mxGeometry>
        </mxCell>
        <mxCell id="l5rh0tmX_DXBjngYn8-5-22" value="1" style="resizable=0;html=1;whiteSpace=wrap;align=right;verticalAlign=bottom;" parent="l5rh0tmX_DXBjngYn8-5-21" connectable="0" vertex="1">
          <mxGeometry x="1" relative="1" as="geometry">
            <mxPoint x="-10" as="offset" />
          </mxGeometry>
        </mxCell>
        <mxCell id="l5rh0tmX_DXBjngYn8-5-23" value="&lt;u&gt;id&lt;/u&gt;" style="ellipse;whiteSpace=wrap;html=1;fillColor=#dae8fc;strokeColor=#6c8ebf;" parent="1" vertex="1">
          <mxGeometry x="355" y="80" width="70" height="50" as="geometry" />
        </mxCell>
        <mxCell id="l5rh0tmX_DXBjngYn8-5-24" value="event_owner" style="ellipse;whiteSpace=wrap;html=1;fillColor=#dae8fc;strokeColor=#6c8ebf;" parent="1" vertex="1">
          <mxGeometry x="350" y="20" width="80" height="50" as="geometry" />
        </mxCell>
        <mxCell id="l5rh0tmX_DXBjngYn8-5-25" value="title" style="ellipse;whiteSpace=wrap;html=1;fillColor=#dae8fc;strokeColor=#6c8ebf;" parent="1" vertex="1">
          <mxGeometry x="510" width="70" height="50" as="geometry" />
        </mxCell>
        <mxCell id="l5rh0tmX_DXBjngYn8-5-26" value="event_category" style="ellipse;whiteSpace=wrap;html=1;fillColor=#dae8fc;strokeColor=#6c8ebf;" parent="1" vertex="1">
          <mxGeometry x="440" y="40" width="90" height="60" as="geometry" />
        </mxCell>
        <mxCell id="l5rh0tmX_DXBjngYn8-5-28" value="about_event" style="ellipse;whiteSpace=wrap;html=1;fillColor=#dae8fc;strokeColor=#6c8ebf;" parent="1" vertex="1">
          <mxGeometry x="550" y="50" width="70" height="50" as="geometry" />
        </mxCell>
        <mxCell id="l5rh0tmX_DXBjngYn8-5-31" value="image" style="ellipse;whiteSpace=wrap;html=1;fillColor=#dae8fc;strokeColor=#6c8ebf;" parent="1" vertex="1">
          <mxGeometry x="630" y="10" width="70" height="50" as="geometry" />
        </mxCell>
        <mxCell id="l5rh0tmX_DXBjngYn8-5-32" value="start_date" style="ellipse;whiteSpace=wrap;html=1;fillColor=#dae8fc;strokeColor=#6c8ebf;" parent="1" vertex="1">
          <mxGeometry x="630" y="70" width="70" height="50" as="geometry" />
        </mxCell>
        <mxCell id="l5rh0tmX_DXBjngYn8-5-33" value="end_date" style="ellipse;whiteSpace=wrap;html=1;fillColor=#dae8fc;strokeColor=#6c8ebf;" parent="1" vertex="1">
          <mxGeometry x="740" y="50" width="70" height="50" as="geometry" />
        </mxCell>
        <mxCell id="l5rh0tmX_DXBjngYn8-5-34" value="province" style="ellipse;whiteSpace=wrap;html=1;fillColor=#dae8fc;strokeColor=#6c8ebf;" parent="1" vertex="1">
          <mxGeometry x="379" y="200" width="70" height="50" as="geometry" />
        </mxCell>
        <mxCell id="l5rh0tmX_DXBjngYn8-5-35" value="city" style="ellipse;whiteSpace=wrap;html=1;fillColor=#dae8fc;strokeColor=#6c8ebf;" parent="1" vertex="1">
          <mxGeometry x="310" y="325" width="70" height="50" as="geometry" />
        </mxCell>
        <mxCell id="l5rh0tmX_DXBjngYn8-5-36" value="&lt;font style=&quot;font-size: 11px;&quot;&gt;neighborhood&lt;/font&gt;" style="ellipse;whiteSpace=wrap;html=1;fillColor=#dae8fc;strokeColor=#6c8ebf;" parent="1" vertex="1">
          <mxGeometry x="310" y="270" width="85" height="50" as="geometry" />
        </mxCell>
        <mxCell id="l5rh0tmX_DXBjngYn8-5-37" value="full_description" style="ellipse;whiteSpace=wrap;html=1;fillColor=#dae8fc;strokeColor=#6c8ebf;" parent="1" vertex="1">
          <mxGeometry x="590" y="270" width="90" height="60" as="geometry" />
        </mxCell>
        <mxCell id="l5rh0tmX_DXBjngYn8-5-38" value="subscribers" style="ellipse;whiteSpace=wrap;html=1;fillColor=#dae8fc;strokeColor=#6c8ebf;" parent="1" vertex="1">
          <mxGeometry x="700" y="110" width="70" height="50" as="geometry" />
        </mxCell>
        <mxCell id="l5rh0tmX_DXBjngYn8-5-42" value="" style="endArrow=none;html=1;rounded=0;" parent="1" source="l5rh0tmX_DXBjngYn8-5-13" target="l5rh0tmX_DXBjngYn8-5-23" edge="1">
          <mxGeometry width="50" height="50" relative="1" as="geometry">
            <mxPoint x="550" y="210" as="sourcePoint" />
            <mxPoint x="600" y="160" as="targetPoint" />
          </mxGeometry>
        </mxCell>
        <mxCell id="l5rh0tmX_DXBjngYn8-5-43" value="" style="endArrow=none;html=1;rounded=0;" parent="1" source="l5rh0tmX_DXBjngYn8-5-13" target="l5rh0tmX_DXBjngYn8-5-24" edge="1">
          <mxGeometry width="50" height="50" relative="1" as="geometry">
            <mxPoint x="550" y="210" as="sourcePoint" />
            <mxPoint x="600" y="160" as="targetPoint" />
          </mxGeometry>
        </mxCell>
        <mxCell id="l5rh0tmX_DXBjngYn8-5-45" value="" style="endArrow=none;html=1;rounded=0;" parent="1" source="l5rh0tmX_DXBjngYn8-5-13" target="l5rh0tmX_DXBjngYn8-5-25" edge="1">
          <mxGeometry width="50" height="50" relative="1" as="geometry">
            <mxPoint x="550" y="210" as="sourcePoint" />
            <mxPoint x="600" y="160" as="targetPoint" />
          </mxGeometry>
        </mxCell>
        <mxCell id="l5rh0tmX_DXBjngYn8-5-47" value="" style="endArrow=none;html=1;rounded=0;" parent="1" source="l5rh0tmX_DXBjngYn8-5-28" target="l5rh0tmX_DXBjngYn8-5-13" edge="1">
          <mxGeometry width="50" height="50" relative="1" as="geometry">
            <mxPoint x="550" y="210" as="sourcePoint" />
            <mxPoint x="600" y="160" as="targetPoint" />
          </mxGeometry>
        </mxCell>
        <mxCell id="l5rh0tmX_DXBjngYn8-5-48" value="" style="endArrow=none;html=1;rounded=0;" parent="1" source="l5rh0tmX_DXBjngYn8-5-13" target="l5rh0tmX_DXBjngYn8-5-31" edge="1">
          <mxGeometry width="50" height="50" relative="1" as="geometry">
            <mxPoint x="570" y="280" as="sourcePoint" />
            <mxPoint x="620" y="230" as="targetPoint" />
          </mxGeometry>
        </mxCell>
        <mxCell id="l5rh0tmX_DXBjngYn8-5-54" value="" style="endArrow=none;html=1;rounded=0;" parent="1" source="l5rh0tmX_DXBjngYn8-5-32" target="l5rh0tmX_DXBjngYn8-5-13" edge="1">
          <mxGeometry width="50" height="50" relative="1" as="geometry">
            <mxPoint x="570" y="280" as="sourcePoint" />
            <mxPoint x="620" y="230" as="targetPoint" />
          </mxGeometry>
        </mxCell>
        <mxCell id="l5rh0tmX_DXBjngYn8-5-55" value="" style="endArrow=none;html=1;rounded=0;" parent="1" source="l5rh0tmX_DXBjngYn8-5-33" target="l5rh0tmX_DXBjngYn8-5-13" edge="1">
          <mxGeometry width="50" height="50" relative="1" as="geometry">
            <mxPoint x="570" y="280" as="sourcePoint" />
            <mxPoint x="620" y="230" as="targetPoint" />
          </mxGeometry>
        </mxCell>
        <mxCell id="l5rh0tmX_DXBjngYn8-5-56" value="" style="endArrow=none;html=1;rounded=0;" parent="1" source="l5rh0tmX_DXBjngYn8-5-34" target="l5rh0tmX_DXBjngYn8-5-13" edge="1">
          <mxGeometry width="50" height="50" relative="1" as="geometry">
            <mxPoint x="570" y="280" as="sourcePoint" />
            <mxPoint x="620" y="230" as="targetPoint" />
          </mxGeometry>
        </mxCell>
        <mxCell id="l5rh0tmX_DXBjngYn8-5-57" value="" style="endArrow=none;html=1;rounded=0;" parent="1" source="l5rh0tmX_DXBjngYn8-5-13" target="l5rh0tmX_DXBjngYn8-5-35" edge="1">
          <mxGeometry width="50" height="50" relative="1" as="geometry">
            <mxPoint x="570" y="280" as="sourcePoint" />
            <mxPoint x="620" y="230" as="targetPoint" />
          </mxGeometry>
        </mxCell>
        <mxCell id="l5rh0tmX_DXBjngYn8-5-58" value="" style="endArrow=none;html=1;rounded=0;" parent="1" source="l5rh0tmX_DXBjngYn8-5-36" target="l5rh0tmX_DXBjngYn8-5-13" edge="1">
          <mxGeometry width="50" height="50" relative="1" as="geometry">
            <mxPoint x="570" y="280" as="sourcePoint" />
            <mxPoint x="620" y="230" as="targetPoint" />
          </mxGeometry>
        </mxCell>
        <mxCell id="l5rh0tmX_DXBjngYn8-5-60" value="" style="endArrow=none;html=1;rounded=0;" parent="1" source="l5rh0tmX_DXBjngYn8-5-37" target="l5rh0tmX_DXBjngYn8-5-13" edge="1">
          <mxGeometry width="50" height="50" relative="1" as="geometry">
            <mxPoint x="570" y="280" as="sourcePoint" />
            <mxPoint x="620" y="230" as="targetPoint" />
          </mxGeometry>
        </mxCell>
        <mxCell id="l5rh0tmX_DXBjngYn8-5-61" value="&lt;span style=&quot;font-family: Verdana; font-size: 14px; font-weight: 700; text-wrap-mode: nowrap;&quot;&gt;UserEventRole&lt;/span&gt;" style="rounded=0;whiteSpace=wrap;html=1;fillColor=#d5e8d4;strokeColor=#82b366;" parent="1" vertex="1">
          <mxGeometry x="470" y="500" width="140" height="60" as="geometry" />
        </mxCell>
        <mxCell id="l5rh0tmX_DXBjngYn8-5-64" value="" style="shape=link;html=1;rounded=0;" parent="1" source="l5rh0tmX_DXBjngYn8-5-13" target="l5rh0tmX_DXBjngYn8-5-38" edge="1">
          <mxGeometry width="100" relative="1" as="geometry">
            <mxPoint x="724" y="150" as="sourcePoint" />
            <mxPoint x="680" y="261" as="targetPoint" />
          </mxGeometry>
        </mxCell>
        <mxCell id="l5rh0tmX_DXBjngYn8-5-67" value="&lt;span style=&quot;text-align: left;&quot;&gt;&lt;span style=&quot;font-size: 8pt; line-height: 11.4133px;&quot;&gt;max_subscribers&lt;/span&gt;&lt;/span&gt;" style="ellipse;whiteSpace=wrap;html=1;fillColor=#dae8fc;strokeColor=#6c8ebf;" parent="1" vertex="1">
          <mxGeometry x="640" y="160" width="90" height="50" as="geometry" />
        </mxCell>
        <mxCell id="l5rh0tmX_DXBjngYn8-5-68" value="" style="endArrow=none;html=1;rounded=0;" parent="1" source="l5rh0tmX_DXBjngYn8-5-13" target="l5rh0tmX_DXBjngYn8-5-67" edge="1">
          <mxGeometry width="50" height="50" relative="1" as="geometry">
            <mxPoint x="500" y="330" as="sourcePoint" />
            <mxPoint x="550" y="280" as="targetPoint" />
          </mxGeometry>
        </mxCell>
        <mxCell id="l5rh0tmX_DXBjngYn8-5-70" value="Hold" style="rhombus;whiteSpace=wrap;html=1;fillColor=#ffe6cc;strokeColor=#d79b00;" parent="1" vertex="1">
          <mxGeometry x="500" y="330" width="80" height="80" as="geometry" />
        </mxCell>
        <mxCell id="l5rh0tmX_DXBjngYn8-5-72" value="" style="endArrow=none;html=1;rounded=0;" parent="1" source="l5rh0tmX_DXBjngYn8-5-70" target="l5rh0tmX_DXBjngYn8-5-13" edge="1">
          <mxGeometry relative="1" as="geometry">
            <mxPoint x="440" y="260" as="sourcePoint" />
            <mxPoint x="600" y="260" as="targetPoint" />
          </mxGeometry>
        </mxCell>
        <mxCell id="l5rh0tmX_DXBjngYn8-5-73" value="1" style="resizable=0;html=1;whiteSpace=wrap;align=right;verticalAlign=bottom;" parent="l5rh0tmX_DXBjngYn8-5-72" connectable="0" vertex="1">
          <mxGeometry x="1" relative="1" as="geometry">
            <mxPoint y="30" as="offset" />
          </mxGeometry>
        </mxCell>
        <mxCell id="l5rh0tmX_DXBjngYn8-5-74" value="" style="endArrow=none;html=1;rounded=0;" parent="1" source="l5rh0tmX_DXBjngYn8-5-70" target="l5rh0tmX_DXBjngYn8-5-61" edge="1">
          <mxGeometry relative="1" as="geometry">
            <mxPoint x="440" y="480" as="sourcePoint" />
            <mxPoint x="600" y="480" as="targetPoint" />
          </mxGeometry>
        </mxCell>
        <mxCell id="l5rh0tmX_DXBjngYn8-5-75" value="N" style="resizable=0;html=1;whiteSpace=wrap;align=right;verticalAlign=bottom;" parent="l5rh0tmX_DXBjngYn8-5-74" connectable="0" vertex="1">
          <mxGeometry x="1" relative="1" as="geometry">
            <mxPoint y="-10" as="offset" />
          </mxGeometry>
        </mxCell>
        <mxCell id="l5rh0tmX_DXBjngYn8-5-76" value="&lt;u&gt;id&lt;/u&gt;" style="ellipse;whiteSpace=wrap;html=1;fillColor=#dae8fc;strokeColor=#6c8ebf;" parent="1" vertex="1">
          <mxGeometry x="650" y="460" width="70" height="50" as="geometry" />
        </mxCell>
        <mxCell id="l5rh0tmX_DXBjngYn8-5-77" value="&lt;span style=&quot;font-size: 10.6667px;&quot;&gt;user&lt;/span&gt;" style="ellipse;whiteSpace=wrap;html=1;fillColor=#dae8fc;strokeColor=#6c8ebf;" parent="1" vertex="1">
          <mxGeometry x="650" y="535" width="70" height="50" as="geometry" />
        </mxCell>
        <mxCell id="l5rh0tmX_DXBjngYn8-5-78" value="&lt;span style=&quot;font-size: 8pt; line-height: 107%;&quot;&gt;event_id&lt;/span&gt;" style="ellipse;whiteSpace=wrap;html=1;fillColor=#dae8fc;strokeColor=#6c8ebf;" parent="1" vertex="1">
          <mxGeometry x="340" y="550" width="70" height="50" as="geometry" />
        </mxCell>
        <mxCell id="l5rh0tmX_DXBjngYn8-5-80" value="is_approved" style="ellipse;whiteSpace=wrap;html=1;fillColor=#dae8fc;strokeColor=#6c8ebf;" parent="1" vertex="1">
          <mxGeometry x="344" y="480" width="70" height="50" as="geometry" />
        </mxCell>
        <mxCell id="l5rh0tmX_DXBjngYn8-5-84" value="" style="endArrow=none;html=1;rounded=0;" parent="1" source="l5rh0tmX_DXBjngYn8-5-61" target="l5rh0tmX_DXBjngYn8-5-76" edge="1">
          <mxGeometry width="50" height="50" relative="1" as="geometry">
            <mxPoint x="430" y="470" as="sourcePoint" />
            <mxPoint x="480" y="420" as="targetPoint" />
          </mxGeometry>
        </mxCell>
        <mxCell id="l5rh0tmX_DXBjngYn8-5-85" value="" style="endArrow=none;html=1;rounded=0;" parent="1" source="l5rh0tmX_DXBjngYn8-5-61" target="l5rh0tmX_DXBjngYn8-5-77" edge="1">
          <mxGeometry width="50" height="50" relative="1" as="geometry">
            <mxPoint x="620" y="518" as="sourcePoint" />
            <mxPoint x="663" y="505" as="targetPoint" />
          </mxGeometry>
        </mxCell>
        <mxCell id="l5rh0tmX_DXBjngYn8-5-86" value="" style="endArrow=none;html=1;rounded=0;" parent="1" source="l5rh0tmX_DXBjngYn8-5-61" target="l5rh0tmX_DXBjngYn8-5-78" edge="1">
          <mxGeometry width="50" height="50" relative="1" as="geometry">
            <mxPoint x="630" y="528" as="sourcePoint" />
            <mxPoint x="673" y="515" as="targetPoint" />
          </mxGeometry>
        </mxCell>
        <mxCell id="l5rh0tmX_DXBjngYn8-5-87" value="" style="endArrow=none;html=1;rounded=0;" parent="1" source="l5rh0tmX_DXBjngYn8-5-80" target="l5rh0tmX_DXBjngYn8-5-61" edge="1">
          <mxGeometry width="50" height="50" relative="1" as="geometry">
            <mxPoint x="430" y="470" as="sourcePoint" />
            <mxPoint x="480" y="420" as="targetPoint" />
          </mxGeometry>
        </mxCell>
        <mxCell id="l5rh0tmX_DXBjngYn8-5-88" value="Participates" style="rhombus;whiteSpace=wrap;html=1;fillColor=#ffe6cc;strokeColor=#d79b00;" parent="1" vertex="1">
          <mxGeometry x="500" y="620" width="80" height="80" as="geometry" />
        </mxCell>
        <mxCell id="l5rh0tmX_DXBjngYn8-5-89" value="&lt;span style=&quot;font-size: 16px; font-weight: 700; text-wrap-mode: nowrap;&quot;&gt;User&lt;/span&gt;" style="rounded=0;whiteSpace=wrap;html=1;fillColor=#d5e8d4;strokeColor=#82b366;" parent="1" vertex="1">
          <mxGeometry x="480" y="780" width="120" height="60" as="geometry" />
        </mxCell>
        <mxCell id="l5rh0tmX_DXBjngYn8-5-90" value="" style="endArrow=none;html=1;rounded=0;" parent="1" source="l5rh0tmX_DXBjngYn8-5-88" target="l5rh0tmX_DXBjngYn8-5-89" edge="1">
          <mxGeometry relative="1" as="geometry">
            <mxPoint x="560" y="730" as="sourcePoint" />
            <mxPoint x="720" y="730" as="targetPoint" />
          </mxGeometry>
        </mxCell>
        <mxCell id="l5rh0tmX_DXBjngYn8-5-91" value="1" style="resizable=0;html=1;whiteSpace=wrap;align=right;verticalAlign=bottom;" parent="l5rh0tmX_DXBjngYn8-5-90" connectable="0" vertex="1">
          <mxGeometry x="1" relative="1" as="geometry">
            <mxPoint y="-10" as="offset" />
          </mxGeometry>
        </mxCell>
        <mxCell id="l5rh0tmX_DXBjngYn8-5-93" value="" style="endArrow=none;html=1;rounded=0;" parent="1" edge="1">
          <mxGeometry relative="1" as="geometry">
            <mxPoint x="539.7" y="620" as="sourcePoint" />
            <mxPoint x="539.7" y="560" as="targetPoint" />
          </mxGeometry>
        </mxCell>
        <mxCell id="l5rh0tmX_DXBjngYn8-5-94" value="N" style="resizable=0;html=1;whiteSpace=wrap;align=right;verticalAlign=bottom;" parent="l5rh0tmX_DXBjngYn8-5-93" connectable="0" vertex="1">
          <mxGeometry x="1" relative="1" as="geometry">
            <mxPoint y="25" as="offset" />
          </mxGeometry>
        </mxCell>
        <mxCell id="l5rh0tmX_DXBjngYn8-5-95" value="&lt;u&gt;id&lt;/u&gt;" style="ellipse;whiteSpace=wrap;html=1;fillColor=#dae8fc;strokeColor=#6c8ebf;" parent="1" vertex="1">
          <mxGeometry x="630" y="700" width="70" height="50" as="geometry" />
        </mxCell>
        <mxCell id="l5rh0tmX_DXBjngYn8-5-96" value="&lt;span style=&quot;font-size: 10.6667px;&quot;&gt;is_active&lt;/span&gt;" style="ellipse;whiteSpace=wrap;html=1;fillColor=#dae8fc;strokeColor=#6c8ebf;" parent="1" vertex="1">
          <mxGeometry x="630" y="760" width="70" height="50" as="geometry" />
        </mxCell>
        <mxCell id="l5rh0tmX_DXBjngYn8-5-97" value="&lt;span style=&quot;font-size: 10.6667px;&quot;&gt;is_admin&lt;/span&gt;" style="ellipse;whiteSpace=wrap;html=1;fillColor=#dae8fc;strokeColor=#6c8ebf;" parent="1" vertex="1">
          <mxGeometry x="630" y="830" width="70" height="50" as="geometry" />
        </mxCell>
        <mxCell id="l5rh0tmX_DXBjngYn8-5-99" value="&lt;span style=&quot;text-align: left;&quot;&gt;registration_start_date&lt;/span&gt;" style="ellipse;whiteSpace=wrap;html=1;fillColor=#dae8fc;strokeColor=#6c8ebf;" parent="1" vertex="1">
          <mxGeometry x="670" y="210" width="130" height="70" as="geometry" />
        </mxCell>
        <mxCell id="l5rh0tmX_DXBjngYn8-5-100" value="&lt;span style=&quot;text-align: left;&quot;&gt;registration_end_date&lt;/span&gt;" style="ellipse;whiteSpace=wrap;html=1;fillColor=#dae8fc;strokeColor=#6c8ebf;" parent="1" vertex="1">
          <mxGeometry x="680" y="290" width="130" height="70" as="geometry" />
        </mxCell>
        <mxCell id="l5rh0tmX_DXBjngYn8-5-101" value="" style="endArrow=none;html=1;rounded=0;" parent="1" source="l5rh0tmX_DXBjngYn8-5-13" target="l5rh0tmX_DXBjngYn8-5-99" edge="1">
          <mxGeometry width="50" height="50" relative="1" as="geometry">
            <mxPoint x="470" y="190" as="sourcePoint" />
            <mxPoint x="520" y="140" as="targetPoint" />
          </mxGeometry>
        </mxCell>
        <mxCell id="l5rh0tmX_DXBjngYn8-5-102" value="" style="endArrow=none;html=1;rounded=0;" parent="1" source="l5rh0tmX_DXBjngYn8-5-13" target="l5rh0tmX_DXBjngYn8-5-100" edge="1">
          <mxGeometry width="50" height="50" relative="1" as="geometry">
            <mxPoint x="550" y="240" as="sourcePoint" />
            <mxPoint x="520" y="140" as="targetPoint" />
          </mxGeometry>
        </mxCell>
        <mxCell id="l5rh0tmX_DXBjngYn8-5-103" value="postal_address" style="ellipse;whiteSpace=wrap;html=1;fillColor=#dae8fc;strokeColor=#6c8ebf;" parent="1" vertex="1">
          <mxGeometry x="414" y="375" width="90" height="60" as="geometry" />
        </mxCell>
        <mxCell id="l5rh0tmX_DXBjngYn8-5-104" value="postal_code" style="ellipse;whiteSpace=wrap;html=1;fillColor=#dae8fc;strokeColor=#6c8ebf;" parent="1" vertex="1">
          <mxGeometry x="390" y="300" width="90" height="60" as="geometry" />
        </mxCell>
        <mxCell id="l5rh0tmX_DXBjngYn8-5-105" value="" style="endArrow=none;html=1;rounded=0;" parent="1" source="l5rh0tmX_DXBjngYn8-5-13" target="l5rh0tmX_DXBjngYn8-5-104" edge="1">
          <mxGeometry width="50" height="50" relative="1" as="geometry">
            <mxPoint x="470" y="450" as="sourcePoint" />
            <mxPoint x="520" y="400" as="targetPoint" />
          </mxGeometry>
        </mxCell>
        <mxCell id="l5rh0tmX_DXBjngYn8-5-106" value="" style="endArrow=none;html=1;rounded=0;" parent="1" source="l5rh0tmX_DXBjngYn8-5-103" target="l5rh0tmX_DXBjngYn8-5-13" edge="1">
          <mxGeometry width="50" height="50" relative="1" as="geometry">
            <mxPoint x="470" y="450" as="sourcePoint" />
            <mxPoint x="520" y="400" as="targetPoint" />
          </mxGeometry>
        </mxCell>
        <mxCell id="l5rh0tmX_DXBjngYn8-5-107" value="&lt;span style=&quot;font-size: 8pt; line-height: 107%;&quot;&gt;role&lt;/span&gt;" style="ellipse;whiteSpace=wrap;html=1;fillColor=#dae8fc;strokeColor=#6c8ebf;" parent="1" vertex="1">
          <mxGeometry x="390" y="610" width="70" height="50" as="geometry" />
        </mxCell>
        <mxCell id="l5rh0tmX_DXBjngYn8-5-108" value="" style="endArrow=none;html=1;rounded=0;" parent="1" source="l5rh0tmX_DXBjngYn8-5-107" target="l5rh0tmX_DXBjngYn8-5-61" edge="1">
          <mxGeometry width="50" height="50" relative="1" as="geometry">
            <mxPoint x="410" y="580" as="sourcePoint" />
            <mxPoint x="460" y="530" as="targetPoint" />
          </mxGeometry>
        </mxCell>
        <mxCell id="l5rh0tmX_DXBjngYn8-5-109" value="&lt;span style=&quot;font-size: 10.6667px;&quot;&gt;e-mail&lt;/span&gt;" style="ellipse;whiteSpace=wrap;html=1;fillColor=#dae8fc;strokeColor=#6c8ebf;" parent="1" vertex="1">
          <mxGeometry x="630" y="900" width="70" height="50" as="geometry" />
        </mxCell>
        <mxCell id="l5rh0tmX_DXBjngYn8-5-110" value="&lt;span style=&quot;font-size: 10.6667px;&quot;&gt;phone_nmuber&lt;/span&gt;" style="ellipse;whiteSpace=wrap;html=1;fillColor=#dae8fc;strokeColor=#6c8ebf;" parent="1" vertex="1">
          <mxGeometry x="620" y="640" width="90" height="50" as="geometry" />
        </mxCell>
        <mxCell id="l5rh0tmX_DXBjngYn8-5-111" value="&lt;span style=&quot;font-size: 10.6667px;&quot;&gt;full_name&lt;/span&gt;" style="ellipse;whiteSpace=wrap;html=1;fillColor=#dae8fc;strokeColor=#6c8ebf;" parent="1" vertex="1">
          <mxGeometry x="590" y="945" width="70" height="50" as="geometry" />
        </mxCell>
        <mxCell id="l5rh0tmX_DXBjngYn8-5-112" value="" style="endArrow=none;html=1;rounded=0;" parent="1" source="l5rh0tmX_DXBjngYn8-5-89" target="l5rh0tmX_DXBjngYn8-5-95" edge="1">
          <mxGeometry width="50" height="50" relative="1" as="geometry">
            <mxPoint x="410" y="830" as="sourcePoint" />
            <mxPoint x="460" y="780" as="targetPoint" />
          </mxGeometry>
        </mxCell>
        <mxCell id="l5rh0tmX_DXBjngYn8-5-113" value="" style="endArrow=none;html=1;rounded=0;" parent="1" source="l5rh0tmX_DXBjngYn8-5-89" target="l5rh0tmX_DXBjngYn8-5-96" edge="1">
          <mxGeometry width="50" height="50" relative="1" as="geometry">
            <mxPoint x="410" y="830" as="sourcePoint" />
            <mxPoint x="460" y="780" as="targetPoint" />
          </mxGeometry>
        </mxCell>
        <mxCell id="l5rh0tmX_DXBjngYn8-5-114" value="" style="endArrow=none;html=1;rounded=0;" parent="1" source="l5rh0tmX_DXBjngYn8-5-89" target="l5rh0tmX_DXBjngYn8-5-97" edge="1">
          <mxGeometry width="50" height="50" relative="1" as="geometry">
            <mxPoint x="410" y="830" as="sourcePoint" />
            <mxPoint x="460" y="780" as="targetPoint" />
          </mxGeometry>
        </mxCell>
        <mxCell id="l5rh0tmX_DXBjngYn8-5-115" value="" style="endArrow=none;html=1;rounded=0;" parent="1" source="l5rh0tmX_DXBjngYn8-5-89" target="l5rh0tmX_DXBjngYn8-5-110" edge="1">
          <mxGeometry width="50" height="50" relative="1" as="geometry">
            <mxPoint x="410" y="830" as="sourcePoint" />
            <mxPoint x="460" y="780" as="targetPoint" />
          </mxGeometry>
        </mxCell>
        <mxCell id="l5rh0tmX_DXBjngYn8-5-116" value="" style="endArrow=none;html=1;rounded=0;" parent="1" source="l5rh0tmX_DXBjngYn8-5-109" target="l5rh0tmX_DXBjngYn8-5-89" edge="1">
          <mxGeometry width="50" height="50" relative="1" as="geometry">
            <mxPoint x="410" y="830" as="sourcePoint" />
            <mxPoint x="460" y="780" as="targetPoint" />
          </mxGeometry>
        </mxCell>
        <mxCell id="l5rh0tmX_DXBjngYn8-5-117" value="" style="endArrow=none;html=1;rounded=0;" parent="1" source="l5rh0tmX_DXBjngYn8-5-111" target="l5rh0tmX_DXBjngYn8-5-89" edge="1">
          <mxGeometry width="50" height="50" relative="1" as="geometry">
            <mxPoint x="410" y="830" as="sourcePoint" />
            <mxPoint x="460" y="780" as="targetPoint" />
          </mxGeometry>
        </mxCell>
        <mxCell id="l5rh0tmX_DXBjngYn8-5-118" value="&lt;span style=&quot;font-size: 16px; text-wrap-mode: nowrap;&quot;&gt;&lt;b&gt;ContactUs&lt;/b&gt;&lt;/span&gt;" style="rounded=0;whiteSpace=wrap;html=1;fillColor=#d5e8d4;strokeColor=#82b366;" parent="1" vertex="1">
          <mxGeometry x="1030" y="480" width="120" height="60" as="geometry" />
        </mxCell>
        <mxCell id="l5rh0tmX_DXBjngYn8-5-119" value="&lt;u&gt;id&lt;/u&gt;" style="ellipse;whiteSpace=wrap;html=1;fillColor=#dae8fc;strokeColor=#6c8ebf;" parent="1" vertex="1">
          <mxGeometry x="1055" y="390" width="70" height="50" as="geometry" />
        </mxCell>
        <mxCell id="l5rh0tmX_DXBjngYn8-5-122" value="&lt;span style=&quot;font-size: 10.6667px;&quot;&gt;first_name&lt;/span&gt;" style="ellipse;whiteSpace=wrap;html=1;fillColor=#dae8fc;strokeColor=#6c8ebf;" parent="1" vertex="1">
          <mxGeometry x="1206" y="485" width="70" height="50" as="geometry" />
        </mxCell>
        <mxCell id="l5rh0tmX_DXBjngYn8-5-123" value="&lt;span style=&quot;font-size: 10.6667px;&quot;&gt;last_name&lt;/span&gt;" style="ellipse;whiteSpace=wrap;html=1;fillColor=#dae8fc;strokeColor=#6c8ebf;" parent="1" vertex="1">
          <mxGeometry x="1206" y="550" width="70" height="50" as="geometry" />
        </mxCell>
        <mxCell id="l5rh0tmX_DXBjngYn8-5-124" value="&lt;span style=&quot;font-size: 10.6667px;&quot;&gt;e-mail&lt;/span&gt;" style="ellipse;whiteSpace=wrap;html=1;fillColor=#dae8fc;strokeColor=#6c8ebf;" parent="1" vertex="1">
          <mxGeometry x="1136" y="600" width="70" height="50" as="geometry" />
        </mxCell>
        <mxCell id="l5rh0tmX_DXBjngYn8-5-125" value="&lt;span style=&quot;font-size: 10.6667px;&quot;&gt;subject&lt;/span&gt;" style="ellipse;whiteSpace=wrap;html=1;fillColor=#dae8fc;strokeColor=#6c8ebf;" parent="1" vertex="1">
          <mxGeometry x="940" y="600" width="70" height="50" as="geometry" />
        </mxCell>
        <mxCell id="l5rh0tmX_DXBjngYn8-5-126" value="&lt;span style=&quot;font-size: 10.6667px;&quot;&gt;message&lt;/span&gt;" style="ellipse;whiteSpace=wrap;html=1;fillColor=#dae8fc;strokeColor=#6c8ebf;" parent="1" vertex="1">
          <mxGeometry x="890" y="485" width="70" height="50" as="geometry" />
        </mxCell>
        <mxCell id="l5rh0tmX_DXBjngYn8-5-127" value="&lt;span style=&quot;font-size: 10.6667px;&quot;&gt;created_at&lt;/span&gt;" style="ellipse;whiteSpace=wrap;html=1;fillColor=#dae8fc;strokeColor=#6c8ebf;" parent="1" vertex="1">
          <mxGeometry x="900" y="540" width="70" height="50" as="geometry" />
        </mxCell>
        <mxCell id="l5rh0tmX_DXBjngYn8-5-128" value="" style="endArrow=none;html=1;rounded=0;" parent="1" source="l5rh0tmX_DXBjngYn8-5-119" target="l5rh0tmX_DXBjngYn8-5-118" edge="1">
          <mxGeometry width="50" height="50" relative="1" as="geometry">
            <mxPoint x="710" y="340" as="sourcePoint" />
            <mxPoint x="760" y="290" as="targetPoint" />
          </mxGeometry>
        </mxCell>
        <mxCell id="l5rh0tmX_DXBjngYn8-5-129" value="" style="endArrow=none;html=1;rounded=0;" parent="1" source="l5rh0tmX_DXBjngYn8-5-118" target="l5rh0tmX_DXBjngYn8-5-122" edge="1">
          <mxGeometry width="50" height="50" relative="1" as="geometry">
            <mxPoint x="910" y="610" as="sourcePoint" />
            <mxPoint x="960" y="560" as="targetPoint" />
          </mxGeometry>
        </mxCell>
        <mxCell id="l5rh0tmX_DXBjngYn8-5-130" value="" style="endArrow=none;html=1;rounded=0;" parent="1" source="l5rh0tmX_DXBjngYn8-5-118" target="l5rh0tmX_DXBjngYn8-5-123" edge="1">
          <mxGeometry width="50" height="50" relative="1" as="geometry">
            <mxPoint x="910" y="610" as="sourcePoint" />
            <mxPoint x="960" y="560" as="targetPoint" />
          </mxGeometry>
        </mxCell>
        <mxCell id="l5rh0tmX_DXBjngYn8-5-131" value="" style="endArrow=none;html=1;rounded=0;" parent="1" source="l5rh0tmX_DXBjngYn8-5-118" target="l5rh0tmX_DXBjngYn8-5-124" edge="1">
          <mxGeometry width="50" height="50" relative="1" as="geometry">
            <mxPoint x="910" y="610" as="sourcePoint" />
            <mxPoint x="960" y="560" as="targetPoint" />
          </mxGeometry>
        </mxCell>
        <mxCell id="l5rh0tmX_DXBjngYn8-5-132" value="" style="endArrow=none;html=1;rounded=0;" parent="1" source="l5rh0tmX_DXBjngYn8-5-118" target="l5rh0tmX_DXBjngYn8-5-125" edge="1">
          <mxGeometry width="50" height="50" relative="1" as="geometry">
            <mxPoint x="910" y="610" as="sourcePoint" />
            <mxPoint x="960" y="560" as="targetPoint" />
          </mxGeometry>
        </mxCell>
        <mxCell id="l5rh0tmX_DXBjngYn8-5-133" value="" style="endArrow=none;html=1;rounded=0;" parent="1" source="l5rh0tmX_DXBjngYn8-5-126" target="l5rh0tmX_DXBjngYn8-5-118" edge="1">
          <mxGeometry width="50" height="50" relative="1" as="geometry">
            <mxPoint x="910" y="610" as="sourcePoint" />
            <mxPoint x="960" y="560" as="targetPoint" />
          </mxGeometry>
        </mxCell>
        <mxCell id="l5rh0tmX_DXBjngYn8-5-134" value="" style="endArrow=none;html=1;rounded=0;" parent="1" source="l5rh0tmX_DXBjngYn8-5-127" target="l5rh0tmX_DXBjngYn8-5-118" edge="1">
          <mxGeometry width="50" height="50" relative="1" as="geometry">
            <mxPoint x="910" y="610" as="sourcePoint" />
            <mxPoint x="960" y="560" as="targetPoint" />
          </mxGeometry>
        </mxCell>
        <mxCell id="l5rh0tmX_DXBjngYn8-5-135" value="&lt;span style=&quot;font-size: 16px; text-wrap-mode: nowrap;&quot;&gt;&lt;b&gt;FAQ&lt;/b&gt;&lt;/span&gt;" style="rounded=0;whiteSpace=wrap;html=1;fillColor=#d5e8d4;strokeColor=#82b366;" parent="1" vertex="1">
          <mxGeometry x="80" y="780" width="120" height="60" as="geometry" />
        </mxCell>
        <mxCell id="l5rh0tmX_DXBjngYn8-5-136" value="Makes" style="rhombus;whiteSpace=wrap;html=1;fillColor=#ffe6cc;strokeColor=#d79b00;" parent="1" vertex="1">
          <mxGeometry x="300" y="770" width="80" height="80" as="geometry" />
        </mxCell>
        <mxCell id="l5rh0tmX_DXBjngYn8-5-137" value="" style="endArrow=none;html=1;rounded=0;" parent="1" source="l5rh0tmX_DXBjngYn8-5-136" target="l5rh0tmX_DXBjngYn8-5-89" edge="1">
          <mxGeometry relative="1" as="geometry">
            <mxPoint x="540" y="740" as="sourcePoint" />
            <mxPoint x="700" y="740" as="targetPoint" />
          </mxGeometry>
        </mxCell>
        <mxCell id="l5rh0tmX_DXBjngYn8-5-138" value="1" style="resizable=0;html=1;whiteSpace=wrap;align=right;verticalAlign=bottom;" parent="l5rh0tmX_DXBjngYn8-5-137" connectable="0" vertex="1">
          <mxGeometry x="1" relative="1" as="geometry">
            <mxPoint x="-10" as="offset" />
          </mxGeometry>
        </mxCell>
        <mxCell id="l5rh0tmX_DXBjngYn8-5-139" value="" style="endArrow=none;html=1;rounded=0;" parent="1" source="l5rh0tmX_DXBjngYn8-5-136" target="l5rh0tmX_DXBjngYn8-5-135" edge="1">
          <mxGeometry relative="1" as="geometry">
            <mxPoint x="290" y="809" as="sourcePoint" />
            <mxPoint x="190" y="809" as="targetPoint" />
          </mxGeometry>
        </mxCell>
        <mxCell id="l5rh0tmX_DXBjngYn8-5-140" value="N" style="resizable=0;html=1;whiteSpace=wrap;align=right;verticalAlign=bottom;" parent="l5rh0tmX_DXBjngYn8-5-139" connectable="0" vertex="1">
          <mxGeometry x="1" relative="1" as="geometry">
            <mxPoint x="20" as="offset" />
          </mxGeometry>
        </mxCell>
        <mxCell id="l5rh0tmX_DXBjngYn8-5-142" value="&lt;u&gt;id&lt;/u&gt;" style="ellipse;whiteSpace=wrap;html=1;fillColor=#dae8fc;strokeColor=#6c8ebf;" parent="1" vertex="1">
          <mxGeometry x="105" y="690" width="70" height="50" as="geometry" />
        </mxCell>
        <mxCell id="l5rh0tmX_DXBjngYn8-5-143" value="&lt;span style=&quot;text-align: left;&quot;&gt;question_title&lt;/span&gt;" style="ellipse;whiteSpace=wrap;html=1;fillColor=#dae8fc;strokeColor=#6c8ebf;" parent="1" vertex="1">
          <mxGeometry x="180" y="695" width="90" height="60" as="geometry" />
        </mxCell>
        <mxCell id="l5rh0tmX_DXBjngYn8-5-144" value="&lt;span style=&quot;text-align: left;&quot;&gt;question_answer&lt;/span&gt;" style="ellipse;whiteSpace=wrap;html=1;fillColor=#dae8fc;strokeColor=#6c8ebf;" parent="1" vertex="1">
          <mxGeometry x="-5" y="695" width="100" height="60" as="geometry" />
        </mxCell>
        <mxCell id="l5rh0tmX_DXBjngYn8-5-145" value="&lt;span style=&quot;font-size: 10.6667px;&quot;&gt;created_by&lt;/span&gt;" style="ellipse;whiteSpace=wrap;html=1;fillColor=#dae8fc;strokeColor=#6c8ebf;" parent="1" vertex="1">
          <mxGeometry x="210" y="860" width="70" height="50" as="geometry" />
        </mxCell>
        <mxCell id="l5rh0tmX_DXBjngYn8-5-146" value="&lt;span style=&quot;font-size: 10.6667px;&quot;&gt;created_at&lt;/span&gt;" style="ellipse;whiteSpace=wrap;html=1;fillColor=#dae8fc;strokeColor=#6c8ebf;" parent="1" vertex="1">
          <mxGeometry x="105" y="870" width="70" height="50" as="geometry" />
        </mxCell>
        <mxCell id="l5rh0tmX_DXBjngYn8-5-147" value="&lt;span style=&quot;font-size: 10.6667px;&quot;&gt;updated_at&lt;/span&gt;" style="ellipse;whiteSpace=wrap;html=1;fillColor=#dae8fc;strokeColor=#6c8ebf;" parent="1" vertex="1">
          <mxGeometry y="870" width="70" height="50" as="geometry" />
        </mxCell>
        <mxCell id="l5rh0tmX_DXBjngYn8-5-148" value="" style="endArrow=none;html=1;rounded=0;" parent="1" source="l5rh0tmX_DXBjngYn8-5-135" target="l5rh0tmX_DXBjngYn8-5-142" edge="1">
          <mxGeometry width="50" height="50" relative="1" as="geometry">
            <mxPoint x="270" y="800" as="sourcePoint" />
            <mxPoint x="320" y="750" as="targetPoint" />
          </mxGeometry>
        </mxCell>
        <mxCell id="l5rh0tmX_DXBjngYn8-5-149" value="" style="endArrow=none;html=1;rounded=0;" parent="1" source="l5rh0tmX_DXBjngYn8-5-135" target="l5rh0tmX_DXBjngYn8-5-143" edge="1">
          <mxGeometry width="50" height="50" relative="1" as="geometry">
            <mxPoint x="270" y="800" as="sourcePoint" />
            <mxPoint x="320" y="750" as="targetPoint" />
          </mxGeometry>
        </mxCell>
        <mxCell id="l5rh0tmX_DXBjngYn8-5-151" value="" style="endArrow=none;html=1;rounded=0;" parent="1" source="l5rh0tmX_DXBjngYn8-5-135" target="l5rh0tmX_DXBjngYn8-5-144" edge="1">
          <mxGeometry width="50" height="50" relative="1" as="geometry">
            <mxPoint x="270" y="800" as="sourcePoint" />
            <mxPoint x="320" y="750" as="targetPoint" />
          </mxGeometry>
        </mxCell>
        <mxCell id="l5rh0tmX_DXBjngYn8-5-152" value="" style="endArrow=none;html=1;rounded=0;" parent="1" source="l5rh0tmX_DXBjngYn8-5-145" target="l5rh0tmX_DXBjngYn8-5-135" edge="1">
          <mxGeometry width="50" height="50" relative="1" as="geometry">
            <mxPoint x="320" y="820" as="sourcePoint" />
            <mxPoint x="370" y="770" as="targetPoint" />
          </mxGeometry>
        </mxCell>
        <mxCell id="l5rh0tmX_DXBjngYn8-5-153" value="" style="endArrow=none;html=1;rounded=0;" parent="1" source="l5rh0tmX_DXBjngYn8-5-146" target="l5rh0tmX_DXBjngYn8-5-135" edge="1">
          <mxGeometry width="50" height="50" relative="1" as="geometry">
            <mxPoint x="320" y="820" as="sourcePoint" />
            <mxPoint x="370" y="770" as="targetPoint" />
          </mxGeometry>
        </mxCell>
        <mxCell id="l5rh0tmX_DXBjngYn8-5-154" value="" style="endArrow=none;html=1;rounded=0;" parent="1" source="l5rh0tmX_DXBjngYn8-5-147" target="l5rh0tmX_DXBjngYn8-5-135" edge="1">
          <mxGeometry width="50" height="50" relative="1" as="geometry">
            <mxPoint x="320" y="820" as="sourcePoint" />
            <mxPoint x="370" y="770" as="targetPoint" />
          </mxGeometry>
        </mxCell>
        <mxCell id="l5rh0tmX_DXBjngYn8-5-155" value="&lt;span style=&quot;font-size: 16px; text-wrap-mode: nowrap;&quot;&gt;&lt;b&gt;Ticket&lt;/b&gt;&lt;/span&gt;" style="rounded=0;whiteSpace=wrap;html=1;fillColor=#d5e8d4;strokeColor=#82b366;" parent="1" vertex="1">
          <mxGeometry x="480" y="1090" width="120" height="60" as="geometry" />
        </mxCell>
        <mxCell id="l5rh0tmX_DXBjngYn8-5-156" value="having a problem" style="rhombus;whiteSpace=wrap;html=1;fillColor=#ffe6cc;strokeColor=#d79b00;" parent="1" vertex="1">
          <mxGeometry x="500" y="930" width="80" height="80" as="geometry" />
        </mxCell>
        <mxCell id="l5rh0tmX_DXBjngYn8-5-157" value="" style="endArrow=none;html=1;rounded=0;" parent="1" source="l5rh0tmX_DXBjngYn8-5-156" target="l5rh0tmX_DXBjngYn8-5-89" edge="1">
          <mxGeometry relative="1" as="geometry">
            <mxPoint x="390" y="820" as="sourcePoint" />
            <mxPoint x="490" y="820" as="targetPoint" />
          </mxGeometry>
        </mxCell>
        <mxCell id="l5rh0tmX_DXBjngYn8-5-158" value="1" style="resizable=0;html=1;whiteSpace=wrap;align=right;verticalAlign=bottom;" parent="l5rh0tmX_DXBjngYn8-5-157" connectable="0" vertex="1">
          <mxGeometry x="1" relative="1" as="geometry">
            <mxPoint y="30" as="offset" />
          </mxGeometry>
        </mxCell>
        <mxCell id="l5rh0tmX_DXBjngYn8-5-159" value="" style="endArrow=none;html=1;rounded=0;" parent="1" source="l5rh0tmX_DXBjngYn8-5-156" target="l5rh0tmX_DXBjngYn8-5-155" edge="1">
          <mxGeometry relative="1" as="geometry">
            <mxPoint x="470" y="1050" as="sourcePoint" />
            <mxPoint x="370" y="1050" as="targetPoint" />
          </mxGeometry>
        </mxCell>
        <mxCell id="l5rh0tmX_DXBjngYn8-5-160" value="N" style="resizable=0;html=1;whiteSpace=wrap;align=right;verticalAlign=bottom;" parent="l5rh0tmX_DXBjngYn8-5-159" connectable="0" vertex="1">
          <mxGeometry x="1" relative="1" as="geometry">
            <mxPoint y="-10" as="offset" />
          </mxGeometry>
        </mxCell>
        <mxCell id="l5rh0tmX_DXBjngYn8-5-161" value="&lt;u&gt;id&lt;/u&gt;" style="ellipse;whiteSpace=wrap;html=1;fillColor=#dae8fc;strokeColor=#6c8ebf;" parent="1" vertex="1">
          <mxGeometry x="570" y="1020" width="70" height="50" as="geometry" />
        </mxCell>
        <mxCell id="l5rh0tmX_DXBjngYn8-5-162" value="&lt;span style=&quot;font-size: 10.6667px;&quot;&gt;created_by&lt;/span&gt;" style="ellipse;whiteSpace=wrap;html=1;fillColor=#dae8fc;strokeColor=#6c8ebf;" parent="1" vertex="1">
          <mxGeometry x="650" y="1110" width="70" height="50" as="geometry" />
        </mxCell>
        <mxCell id="l5rh0tmX_DXBjngYn8-5-163" value="&lt;span style=&quot;font-size: 10.6667px;&quot;&gt;title&lt;/span&gt;" style="ellipse;whiteSpace=wrap;html=1;fillColor=#dae8fc;strokeColor=#6c8ebf;" parent="1" vertex="1">
          <mxGeometry x="680" y="1169" width="70" height="50" as="geometry" />
        </mxCell>
        <mxCell id="l5rh0tmX_DXBjngYn8-5-164" value="&lt;span style=&quot;font-size: 10.6667px;&quot;&gt;content&lt;/span&gt;" style="ellipse;whiteSpace=wrap;html=1;fillColor=#dae8fc;strokeColor=#6c8ebf;" parent="1" vertex="1">
          <mxGeometry x="610" y="1190" width="70" height="50" as="geometry" />
        </mxCell>
        <mxCell id="l5rh0tmX_DXBjngYn8-5-165" value="&lt;span style=&quot;font-size: 10.6667px;&quot;&gt;department&lt;/span&gt;" style="ellipse;whiteSpace=wrap;html=1;fillColor=#dae8fc;strokeColor=#6c8ebf;" parent="1" vertex="1">
          <mxGeometry x="540" y="1169" width="70" height="50" as="geometry" />
        </mxCell>
        <mxCell id="l5rh0tmX_DXBjngYn8-5-166" value="&lt;span style=&quot;font-size: 10.6667px;&quot;&gt;priority&lt;/span&gt;" style="ellipse;whiteSpace=wrap;html=1;fillColor=#dae8fc;strokeColor=#6c8ebf;" parent="1" vertex="1">
          <mxGeometry x="500" y="1219" width="70" height="50" as="geometry" />
        </mxCell>
        <mxCell id="l5rh0tmX_DXBjngYn8-5-167" value="&lt;span style=&quot;font-size: 10.6667px;&quot;&gt;status&lt;/span&gt;" style="ellipse;whiteSpace=wrap;html=1;fillColor=#dae8fc;strokeColor=#6c8ebf;" parent="1" vertex="1">
          <mxGeometry x="640" y="1050" width="70" height="50" as="geometry" />
        </mxCell>
        <mxCell id="l5rh0tmX_DXBjngYn8-5-168" value="&lt;span style=&quot;font-size: 10.6667px;&quot;&gt;created_at&lt;/span&gt;" style="ellipse;whiteSpace=wrap;html=1;fillColor=#dae8fc;strokeColor=#6c8ebf;" parent="1" vertex="1">
          <mxGeometry x="460" y="1169" width="70" height="50" as="geometry" />
        </mxCell>
        <mxCell id="l5rh0tmX_DXBjngYn8-5-169" value="&lt;span style=&quot;font-size: 10.6667px;&quot;&gt;updated_at&lt;/span&gt;" style="ellipse;whiteSpace=wrap;html=1;fillColor=#dae8fc;strokeColor=#6c8ebf;" parent="1" vertex="1">
          <mxGeometry x="395" y="1140" width="70" height="50" as="geometry" />
        </mxCell>
        <mxCell id="l5rh0tmX_DXBjngYn8-5-171" value="" style="endArrow=none;html=1;rounded=0;" parent="1" source="l5rh0tmX_DXBjngYn8-5-155" target="l5rh0tmX_DXBjngYn8-5-161" edge="1">
          <mxGeometry width="50" height="50" relative="1" as="geometry">
            <mxPoint x="550" y="1090" as="sourcePoint" />
            <mxPoint x="600" y="1040" as="targetPoint" />
          </mxGeometry>
        </mxCell>
        <mxCell id="l5rh0tmX_DXBjngYn8-5-172" value="" style="endArrow=none;html=1;rounded=0;" parent="1" source="l5rh0tmX_DXBjngYn8-5-155" target="l5rh0tmX_DXBjngYn8-5-162" edge="1">
          <mxGeometry width="50" height="50" relative="1" as="geometry">
            <mxPoint x="550" y="1090" as="sourcePoint" />
            <mxPoint x="600" y="1040" as="targetPoint" />
          </mxGeometry>
        </mxCell>
        <mxCell id="l5rh0tmX_DXBjngYn8-5-173" value="" style="endArrow=none;html=1;rounded=0;" parent="1" source="l5rh0tmX_DXBjngYn8-5-155" target="l5rh0tmX_DXBjngYn8-5-163" edge="1">
          <mxGeometry width="50" height="50" relative="1" as="geometry">
            <mxPoint x="550" y="1230" as="sourcePoint" />
            <mxPoint x="600" y="1180" as="targetPoint" />
          </mxGeometry>
        </mxCell>
        <mxCell id="l5rh0tmX_DXBjngYn8-5-174" value="" style="endArrow=none;html=1;rounded=0;" parent="1" source="l5rh0tmX_DXBjngYn8-5-155" target="l5rh0tmX_DXBjngYn8-5-164" edge="1">
          <mxGeometry width="50" height="50" relative="1" as="geometry">
            <mxPoint x="550" y="1230" as="sourcePoint" />
            <mxPoint x="600" y="1180" as="targetPoint" />
          </mxGeometry>
        </mxCell>
        <mxCell id="l5rh0tmX_DXBjngYn8-5-175" value="" style="endArrow=none;html=1;rounded=0;" parent="1" source="l5rh0tmX_DXBjngYn8-5-165" target="l5rh0tmX_DXBjngYn8-5-155" edge="1">
          <mxGeometry width="50" height="50" relative="1" as="geometry">
            <mxPoint x="550" y="1230" as="sourcePoint" />
            <mxPoint x="600" y="1180" as="targetPoint" />
          </mxGeometry>
        </mxCell>
        <mxCell id="l5rh0tmX_DXBjngYn8-5-176" value="" style="endArrow=none;html=1;rounded=0;" parent="1" source="l5rh0tmX_DXBjngYn8-5-166" target="l5rh0tmX_DXBjngYn8-5-155" edge="1">
          <mxGeometry width="50" height="50" relative="1" as="geometry">
            <mxPoint x="550" y="1230" as="sourcePoint" />
            <mxPoint x="600" y="1180" as="targetPoint" />
          </mxGeometry>
        </mxCell>
        <mxCell id="l5rh0tmX_DXBjngYn8-5-177" value="" style="endArrow=none;html=1;rounded=0;" parent="1" source="l5rh0tmX_DXBjngYn8-5-167" target="l5rh0tmX_DXBjngYn8-5-155" edge="1">
          <mxGeometry width="50" height="50" relative="1" as="geometry">
            <mxPoint x="550" y="1230" as="sourcePoint" />
            <mxPoint x="600" y="1180" as="targetPoint" />
          </mxGeometry>
        </mxCell>
        <mxCell id="l5rh0tmX_DXBjngYn8-5-178" value="" style="endArrow=none;html=1;rounded=0;" parent="1" source="l5rh0tmX_DXBjngYn8-5-155" target="l5rh0tmX_DXBjngYn8-5-168" edge="1">
          <mxGeometry width="50" height="50" relative="1" as="geometry">
            <mxPoint x="610" y="1090" as="sourcePoint" />
            <mxPoint x="660" y="1040" as="targetPoint" />
          </mxGeometry>
        </mxCell>
        <mxCell id="l5rh0tmX_DXBjngYn8-5-179" value="" style="endArrow=none;html=1;rounded=0;" parent="1" source="l5rh0tmX_DXBjngYn8-5-169" target="l5rh0tmX_DXBjngYn8-5-155" edge="1">
          <mxGeometry width="50" height="50" relative="1" as="geometry">
            <mxPoint x="610" y="1090" as="sourcePoint" />
            <mxPoint x="520" y="1120" as="targetPoint" />
          </mxGeometry>
        </mxCell>
        <mxCell id="l5rh0tmX_DXBjngYn8-5-180" value="contains" style="rhombus;whiteSpace=wrap;html=1;fillColor=#ffe6cc;strokeColor=#d79b00;" parent="1" vertex="1">
          <mxGeometry x="280" y="1080" width="80" height="80" as="geometry" />
        </mxCell>
        <mxCell id="l5rh0tmX_DXBjngYn8-5-182" value="&lt;span style=&quot;font-size: 16px; text-wrap-mode: nowrap;&quot;&gt;&lt;b&gt;TicketMessage&lt;/b&gt;&lt;/span&gt;" style="rounded=0;whiteSpace=wrap;html=1;fillColor=#d5e8d4;strokeColor=#82b366;" parent="1" vertex="1">
          <mxGeometry x="55" y="1090" width="120" height="60" as="geometry" />
        </mxCell>
        <mxCell id="l5rh0tmX_DXBjngYn8-5-183" value="" style="endArrow=none;html=1;rounded=0;" parent="1" source="l5rh0tmX_DXBjngYn8-5-180" target="l5rh0tmX_DXBjngYn8-5-182" edge="1">
          <mxGeometry relative="1" as="geometry">
            <mxPoint x="270" y="1100" as="sourcePoint" />
            <mxPoint x="270" y="1170" as="targetPoint" />
          </mxGeometry>
        </mxCell>
        <mxCell id="l5rh0tmX_DXBjngYn8-5-184" value="N" style="resizable=0;html=1;whiteSpace=wrap;align=right;verticalAlign=bottom;" parent="l5rh0tmX_DXBjngYn8-5-183" connectable="0" vertex="1">
          <mxGeometry x="1" relative="1" as="geometry">
            <mxPoint x="15" as="offset" />
          </mxGeometry>
        </mxCell>
        <mxCell id="l5rh0tmX_DXBjngYn8-5-185" value="" style="endArrow=none;html=1;rounded=0;" parent="1" source="l5rh0tmX_DXBjngYn8-5-180" target="l5rh0tmX_DXBjngYn8-5-155" edge="1">
          <mxGeometry relative="1" as="geometry">
            <mxPoint x="360" y="1100" as="sourcePoint" />
            <mxPoint x="360" y="1010" as="targetPoint" />
          </mxGeometry>
        </mxCell>
        <mxCell id="l5rh0tmX_DXBjngYn8-5-186" value="1" style="resizable=0;html=1;whiteSpace=wrap;align=right;verticalAlign=bottom;" parent="l5rh0tmX_DXBjngYn8-5-185" connectable="0" vertex="1">
          <mxGeometry x="1" relative="1" as="geometry">
            <mxPoint x="-10" y="-3" as="offset" />
          </mxGeometry>
        </mxCell>
        <mxCell id="l5rh0tmX_DXBjngYn8-5-187" value="&lt;u&gt;id&lt;/u&gt;" style="ellipse;whiteSpace=wrap;html=1;fillColor=#dae8fc;strokeColor=#6c8ebf;" parent="1" vertex="1">
          <mxGeometry x="190" y="1169" width="70" height="50" as="geometry" />
        </mxCell>
        <mxCell id="l5rh0tmX_DXBjngYn8-5-188" value="&lt;span style=&quot;font-size: 10.6667px;&quot;&gt;ticket_id&lt;/span&gt;" style="ellipse;whiteSpace=wrap;html=1;fillColor=#dae8fc;strokeColor=#6c8ebf;" parent="1" vertex="1">
          <mxGeometry x="120" y="1200" width="70" height="50" as="geometry" />
        </mxCell>
        <mxCell id="l5rh0tmX_DXBjngYn8-5-189" value="&lt;span style=&quot;font-size: 10.6667px;&quot;&gt;user&lt;/span&gt;" style="ellipse;whiteSpace=wrap;html=1;fillColor=#dae8fc;strokeColor=#6c8ebf;" parent="1" vertex="1">
          <mxGeometry x="40" y="1200" width="70" height="50" as="geometry" />
        </mxCell>
        <mxCell id="l5rh0tmX_DXBjngYn8-5-191" value="&lt;span style=&quot;font-size: 10.6667px;&quot;&gt;message&lt;/span&gt;" style="ellipse;whiteSpace=wrap;html=1;fillColor=#dae8fc;strokeColor=#6c8ebf;" parent="1" vertex="1">
          <mxGeometry x="-30" y="1169" width="70" height="50" as="geometry" />
        </mxCell>
        <mxCell id="l5rh0tmX_DXBjngYn8-5-192" value="&lt;span style=&quot;font-size: 10.6667px;&quot;&gt;created_at&lt;/span&gt;" style="ellipse;whiteSpace=wrap;html=1;fillColor=#dae8fc;strokeColor=#6c8ebf;" parent="1" vertex="1">
          <mxGeometry x="-50" y="1110" width="70" height="50" as="geometry" />
        </mxCell>
        <mxCell id="l5rh0tmX_DXBjngYn8-5-193" value="" style="endArrow=none;html=1;rounded=0;" parent="1" source="l5rh0tmX_DXBjngYn8-5-182" target="l5rh0tmX_DXBjngYn8-5-187" edge="1">
          <mxGeometry width="50" height="50" relative="1" as="geometry">
            <mxPoint x="230" y="1080" as="sourcePoint" />
            <mxPoint x="280" y="1030" as="targetPoint" />
          </mxGeometry>
        </mxCell>
        <mxCell id="l5rh0tmX_DXBjngYn8-5-194" value="" style="endArrow=none;html=1;rounded=0;" parent="1" source="l5rh0tmX_DXBjngYn8-5-182" target="l5rh0tmX_DXBjngYn8-5-188" edge="1">
          <mxGeometry width="50" height="50" relative="1" as="geometry">
            <mxPoint x="230" y="1080" as="sourcePoint" />
            <mxPoint x="280" y="1030" as="targetPoint" />
          </mxGeometry>
        </mxCell>
        <mxCell id="l5rh0tmX_DXBjngYn8-5-195" value="" style="endArrow=none;html=1;rounded=0;" parent="1" source="l5rh0tmX_DXBjngYn8-5-189" target="l5rh0tmX_DXBjngYn8-5-182" edge="1">
          <mxGeometry width="50" height="50" relative="1" as="geometry">
            <mxPoint x="230" y="1080" as="sourcePoint" />
            <mxPoint x="280" y="1030" as="targetPoint" />
          </mxGeometry>
        </mxCell>
        <mxCell id="l5rh0tmX_DXBjngYn8-5-196" value="" style="endArrow=none;html=1;rounded=0;" parent="1" source="l5rh0tmX_DXBjngYn8-5-191" target="l5rh0tmX_DXBjngYn8-5-182" edge="1">
          <mxGeometry width="50" height="50" relative="1" as="geometry">
            <mxPoint x="230" y="1080" as="sourcePoint" />
            <mxPoint x="280" y="1030" as="targetPoint" />
          </mxGeometry>
        </mxCell>
        <mxCell id="l5rh0tmX_DXBjngYn8-5-197" value="" style="endArrow=none;html=1;rounded=0;" parent="1" source="l5rh0tmX_DXBjngYn8-5-192" target="l5rh0tmX_DXBjngYn8-5-182" edge="1">
          <mxGeometry width="50" height="50" relative="1" as="geometry">
            <mxPoint x="230" y="1080" as="sourcePoint" />
            <mxPoint x="280" y="1030" as="targetPoint" />
          </mxGeometry>
        </mxCell>
        <mxCell id="l5rh0tmX_DXBjngYn8-5-199" value="writes" style="rhombus;whiteSpace=wrap;html=1;fillColor=#ffe6cc;strokeColor=#d79b00;" parent="1" vertex="1">
          <mxGeometry x="280" y="945" width="80" height="80" as="geometry" />
        </mxCell>
        <mxCell id="l5rh0tmX_DXBjngYn8-5-200" value="" style="endArrow=none;html=1;rounded=0;" parent="1" source="l5rh0tmX_DXBjngYn8-5-199" target="l5rh0tmX_DXBjngYn8-5-89" edge="1">
          <mxGeometry relative="1" as="geometry">
            <mxPoint x="390" y="820" as="sourcePoint" />
            <mxPoint x="490" y="820" as="targetPoint" />
          </mxGeometry>
        </mxCell>
        <mxCell id="l5rh0tmX_DXBjngYn8-5-201" value="1" style="resizable=0;html=1;whiteSpace=wrap;align=right;verticalAlign=bottom;" parent="l5rh0tmX_DXBjngYn8-5-200" connectable="0" vertex="1">
          <mxGeometry x="1" relative="1" as="geometry">
            <mxPoint x="-23" y="15" as="offset" />
          </mxGeometry>
        </mxCell>
        <mxCell id="l5rh0tmX_DXBjngYn8-5-202" value="" style="endArrow=none;html=1;rounded=0;" parent="1" source="l5rh0tmX_DXBjngYn8-5-199" target="l5rh0tmX_DXBjngYn8-5-182" edge="1">
          <mxGeometry relative="1" as="geometry">
            <mxPoint x="290" y="1130" as="sourcePoint" />
            <mxPoint x="185" y="1130" as="targetPoint" />
          </mxGeometry>
        </mxCell>
        <mxCell id="l5rh0tmX_DXBjngYn8-5-203" value="N" style="resizable=0;html=1;whiteSpace=wrap;align=right;verticalAlign=bottom;" parent="l5rh0tmX_DXBjngYn8-5-202" connectable="0" vertex="1">
          <mxGeometry x="1" relative="1" as="geometry">
            <mxPoint x="4" as="offset" />
          </mxGeometry>
        </mxCell>
        <mxCell id="wkfpu48gRYBOxc2orp6g-1" value="" style="endArrow=none;html=1;rounded=0;" edge="1" parent="1" source="l5rh0tmX_DXBjngYn8-5-13">
          <mxGeometry width="50" height="50" relative="1" as="geometry">
            <mxPoint x="583.5" y="194" as="sourcePoint" />
            <mxPoint x="486.5" y="100" as="targetPoint" />
          </mxGeometry>
        </mxCell>
      </root>
    </mxGraphModel>
  </diagram>
</mxfile>
